<?xml version="1.0" encoding="utf-8" ?>
<svg xmlns="http://www.w3.org/2000/svg" xmlns:xlink="http://www.w3.org/1999/xlink" width="281" height="23">
	<defs>
		<clipPath id="clip_0">
			<rect x="-203.5376" y="-100.23669" width="696.81342" height="1558.3463" clip-rule="evenodd"/>
		</clipPath>
	</defs>
	<g clip-path="url(#clip_0)">
		<path fill="rgb(2,2,3)" stroke="none" transform="matrix(0.9983 0 0 0.9983 108.068 1.33228)" d="M5.42822 20.7808C7.10608 21.7658 9.17858 22.2581 11.5473 22.2581C14.5081 22.2581 17.1728 21.6671 19.344 20.3868L19.344 17.2353C16.8766 18.8111 14.3106 19.599 11.6459 19.599C9.07992 19.599 6.90855 18.8111 5.32956 17.2353C3.6517 15.6596 2.86221 13.6897 2.86221 11.2277C2.86221 8.86397 3.75036 6.79561 5.42822 5.21993C7.10608 3.64404 9.27725 2.8562 11.7446 2.8562C14.1133 2.8562 16.5806 3.54559 19.1467 4.92436L19.1467 1.77279C16.3833 0.590931 13.8173 0 11.6459 0C8.38909 0 5.52688 1.08341 3.35572 3.25022C1.08569 5.41683 0 8.07592 0 11.2277C0 13.1974 0.493512 15.0686 1.48054 16.7428C2.36869 18.4171 3.75036 19.7959 5.42822 20.7808"/>
	</g>
	<defs>
		<clipPath id="clip_1">
			<rect x="-203.5376" y="-100.23669" width="696.81342" height="1558.3463" clip-rule="evenodd"/>
		</clipPath>
	</defs>
	<g clip-path="url(#clip_1)">
		<path fill="rgb(2,2,3)" stroke="none" transform="matrix(0.9983 0 0 0.9983 157.088 1.33228)" d="M4.29247 12.0296L4.29247 21.5161L0 21.5161L1.46361 20.0492L1.46361 0L6.73196 0C8.87881 0 10.6351 0.489045 11.9036 1.5649C13.0743 2.64056 13.7576 4.00992 13.7576 5.86813C13.7576 7.13952 13.4649 8.21517 12.8795 9.0955C12.294 9.97561 11.4158 10.6602 10.2457 11.1492L10.0494 11.247L10.2457 11.345C10.9277 11.8338 11.6109 12.4206 12.294 13.2032C12.8795 13.9855 13.8553 15.3547 15.0261 17.3107C15.8069 18.5821 16.3924 19.5602 16.8803 20.147L17.856 21.5161L14.4408 21.5161L10.7336 15.746C10.1473 14.8657 9.46409 14.0823 8.97615 13.5932C8.48842 13.0074 8.00048 12.6153 7.51254 12.4206C7.0244 12.1263 6.34239 12.0296 5.26815 12.0296L4.29247 12.0296ZM5.36692 2.44502L4.29247 2.44502L4.29247 9.58454L5.56099 9.58454C7.2197 9.58454 8.19557 9.48657 8.87881 9.19326C9.56184 8.89996 10.0494 8.50868 10.3424 7.92187C10.6351 7.33506 10.8304 6.65048 10.8304 5.9659C10.8304 5.18334 10.6351 4.59653 10.2457 4.00992C9.85448 3.52088 9.36655 3.03183 8.68351 2.8363C8.00048 2.54279 6.92706 2.44502 5.36692 2.44502Z" fill-rule="evenodd"/>
	</g>
	<defs>
		<clipPath id="clip_2">
			<rect x="-203.5376" y="-100.23669" width="696.81342" height="1558.3463" clip-rule="evenodd"/>
		</clipPath>
	</defs>
	<g clip-path="url(#clip_2)">
		<path fill="rgb(2,2,3)" stroke="none" transform="matrix(0.9983 0 0 0.9983 178.628 1.33228)" d="M1.51315 21.5161L5.95198 21.5161L4.43883 20.0492L4.43883 0L0 0L1.51315 1.46693L1.51315 21.5161Z"/>
	</g>
	<defs>
		<clipPath id="clip_3">
			<rect x="-203.5376" y="-100.23669" width="696.81342" height="1558.3463" clip-rule="evenodd"/>
		</clipPath>
	</defs>
	<g clip-path="url(#clip_3)">
		<path fill="rgb(2,2,3)" stroke="none" transform="matrix(0.9983 0 0 0.9983 227.648 1.33228)" d="M1.51343 21.5161L5.952 21.5161L4.43857 20.0492L4.43857 0L0 0L1.51343 1.46693L1.51343 21.5161Z"/>
	</g>
	<defs>
		<clipPath id="clip_4">
			<rect x="-203.5376" y="-100.23669" width="696.81342" height="1558.3463" clip-rule="evenodd"/>
		</clipPath>
	</defs>
	<g clip-path="url(#clip_4)">
		<path fill="rgb(2,2,3)" stroke="none" transform="matrix(0.9983 0 0 0.9983 189.769 1.33228)" d="M3.87118 11.2275L6.19275 12.7047C8.12855 13.8866 9.09644 15.2656 9.09644 16.6443C9.09644 17.5306 8.80701 18.22 8.12855 18.8109C7.45191 19.4019 6.6769 19.6974 5.61327 19.6974C3.48398 19.6974 1.54839 18.7125 0 16.7428L0 20.2884C1.74189 21.5687 3.58053 22.2581 5.70901 22.2581C7.54886 22.2581 9.00051 21.7656 10.1619 20.6822C11.3233 19.599 11.904 18.22 11.904 16.5459C11.904 14.1821 10.6456 12.1138 8.03281 10.5381L5.70901 9.15933C4.64517 8.5684 3.87118 7.87901 3.38703 7.28808C2.90328 6.69715 2.61304 6.00777 2.61304 5.31817C2.61304 4.53033 3.00003 3.9394 3.67768 3.44693C4.35513 2.95466 5.22506 2.75754 6.19275 2.75754C7.93606 2.75754 9.58019 3.44693 11.032 4.8259L11.032 1.47722C9.58019 0.492477 7.93606 0 6.19275 0C4.35513 0 2.80552 0.492477 1.74189 1.57568C0.580292 2.65909 0 4.03786 0 5.7122C0 6.79561 0.290247 7.87901 0.86993 8.66685C1.35388 9.45469 2.41954 10.3412 3.87118 11.2275"/>
	</g>
	<defs>
		<clipPath id="clip_5">
			<rect x="-203.5376" y="-100.23669" width="696.81342" height="1558.3463" clip-rule="evenodd"/>
		</clipPath>
	</defs>
	<g clip-path="url(#clip_5)">
		<path fill="rgb(2,2,3)" stroke="none" transform="matrix(0.9983 0 0 0.9983 206.109 1.33228)" d="M7.41559 20.0492L5.95206 21.5161L10.2453 21.5161L10.2453 2.54279L17.856 2.54279L17.856 0L0 0L0 2.54279L7.41559 2.54279L7.41559 20.0492Z"/>
	</g>
	<defs>
		<clipPath id="clip_6">
			<rect x="-203.5376" y="-100.23669" width="696.81342" height="1558.3463" clip-rule="evenodd"/>
		</clipPath>
	</defs>
	<g clip-path="url(#clip_6)">
		<path fill="rgb(2,2,3)" stroke="none" transform="matrix(0.9983 0 0 0.9983 131.835 1.33228)" d="M1.49818 21.5161L4.39491 21.5161L4.39491 12.1263L17.18 12.1263L17.18 21.5161L21.576 21.5161L20.0776 20.0492L20.0776 0L17.18 0L17.18 9.48657L4.39491 9.48657L4.39491 0L0 0L1.49818 1.46693L1.49818 21.5161Z"/>
	</g>
	<defs>
		<clipPath id="clip_7">
			<rect x="-203.5376" y="-100.23669" width="696.81342" height="1558.3463" clip-rule="evenodd"/>
		</clipPath>
	</defs>
	<g clip-path="url(#clip_7)">
		<path fill="rgb(2,2,3)" stroke="none" transform="matrix(0.9983 0 0 0.9983 236.561 0.591583)" d="M6.79797 15.7279L3.94078 22.2581L0 22.2581L1.47774 20.7741L10.6403 0L20.0982 20.7741L21.576 22.2581L17.7339 22.2581L14.6797 15.8278L14.6797 15.7279L6.79797 15.7279ZM13.4973 13.2548L10.5418 6.43002L7.88176 13.2548L13.4973 13.2548Z" fill-rule="evenodd"/>
	</g>
	<defs>
		<clipPath id="clip_8">
			<rect x="261.1264" y="0.64437866" width="19.204681" height="22.907902" clip-rule="evenodd"/>
		</clipPath>
	</defs>
	<g clip-path="url(#clip_8)">
		<path fill="rgb(2,2,3)" stroke="none" transform="matrix(0.9983 0 0 0.9983 261.126 0.644379)" d="M4.08077 22.4482L4.08077 6.48495L19.2379 22.9471L19.2379 0.498891L16.5171 0.498891L16.5171 16.2625L1.45752 0L1.45752 20.9517L0 22.4482L4.08077 22.4482Z"/>
	</g>
	<defs>
		<clipPath id="clip_9">
			<rect x="-203.5376" y="-100.23669" width="696.81342" height="1558.3463" clip-rule="evenodd"/>
		</clipPath>
	</defs>
	<g clip-path="url(#clip_9)">
		<path fill="rgb(2,2,3)" stroke="none" transform="matrix(0.9983 0 0 0.9983 0.371162 1.33228)" d="M1.46538 16.743C2.44244 18.4163 3.81016 19.796 5.47108 20.7809C7.13179 21.7656 9.18357 22.2581 11.5281 22.2581C14.4591 22.2581 17.0971 21.6672 19.344 20.3859L19.344 17.2355C16.9016 18.8111 14.3614 19.5981 11.7237 19.5981C9.18357 19.5981 7.03412 18.8111 5.47108 17.2355C3.81016 15.6586 2.93077 13.689 2.93077 11.228C2.93077 8.86438 3.81016 6.79632 5.47108 5.22051C7.13179 3.54645 9.28124 2.75845 11.7237 2.75845C14.0685 2.75845 16.5109 3.44697 19.051 4.82671L19.051 1.77374C16.3154 0.591936 13.7753 0 11.626 0C8.40184 0 5.56874 1.08439 3.41929 3.2509C1.17239 5.41658 0 8.07658 0 11.228C0 13.1968 0.488324 15.0688 1.46538 16.743"/>
	</g>
	<defs>
		<clipPath id="clip_10">
			<rect x="-203.5376" y="-100.23669" width="696.81342" height="1558.3463" clip-rule="evenodd"/>
		</clipPath>
	</defs>
	<g clip-path="url(#clip_10)">
		<path fill="rgb(2,2,3)" stroke="none" transform="matrix(0.9983 0 0 0.9983 24.8814 1.33228)" d="M1.47242 21.5161L14.136 21.5161L14.136 17.5054L12.6634 18.9723L4.31932 18.9723L4.31932 0L0 0L1.47242 1.5647L1.47242 21.5161Z"/>
	</g>
	<defs>
		<clipPath id="clip_11">
			<rect x="-203.5376" y="-100.23669" width="696.81342" height="1558.3463" clip-rule="evenodd"/>
		</clipPath>
	</defs>
	<g clip-path="url(#clip_11)">
		<path fill="rgb(2,2,3)" stroke="none" transform="matrix(0.9983 0 0 0.9983 42.7071 1.33228)" d="M1.51316 21.5161L5.95199 21.5161L4.43883 20.0492L4.43883 0L0 0L1.51316 1.46693L1.51316 21.5161Z"/>
	</g>
	<defs>
		<clipPath id="clip_12">
			<rect x="-203.5376" y="-100.23669" width="696.81342" height="1558.3463" clip-rule="evenodd"/>
		</clipPath>
	</defs>
	<g clip-path="url(#clip_12)">
		<path fill="rgb(2,2,3)" stroke="none" transform="matrix(0.9983 0 0 0.9983 76.1301 1.33228)" d="M13.5273 18.9723L2.89856 18.9723L2.89856 12.0285L12.7544 12.0285L12.7544 9.48575L2.89856 9.48575L2.89856 2.54279L13.4307 2.54279L14.7834 0L0 0L0 21.5161L14.88 21.5161L13.5273 18.9723Z"/>
	</g>
	<defs>
		<clipPath id="clip_13">
			<rect x="51.752945" y="1.4636841" width="20.632668" height="22.088612" clip-rule="evenodd"/>
		</clipPath>
	</defs>
	<g clip-path="url(#clip_13)">
		<path fill="rgb(2,2,3)" stroke="none" transform="matrix(0.9983 0 0 0.9983 51.7529 1.46368)" d="M10.4323 22.1264L19.1914 1.47501L20.6678 0L17.0263 0L10.4323 15.341L3.73986 0L0 0L1.47618 1.47501L10.4323 22.1264Z"/>
	</g>

</svg>